<?xml version="1.0" encoding="UTF-8" standalone="no"?>
<!DOCTYPE svg PUBLIC "-//W3C//DTD SVG 1.1//EN" "http://www.w3.org/Graphics/SVG/1.1/DTD/svg11.dtd">
<svg xmlns="http://www.w3.org/2000/svg" version="1.1" viewBox="0.00 0.00 115.00 115.00">
<path fill="#377072" d="
  M 114.31 57.67
  A 56.89 56.89 0.0 0 1 57.42 114.56
  A 56.89 56.89 0.0 0 1 0.53 57.67
  A 56.89 56.89 0.0 0 1 57.42 0.78
  A 56.89 56.89 0.0 0 1 114.31 57.67
  Z"
/>
<path fill="#f1fbff" d="
  M 72.04 78.63
  Q 70.16 79.66 66.48 80.92
  C 53.51 85.37 34.29 83.68 29.87 68.13
  Q 28.53 63.41 28.52 58.75
  Q 28.48 36.56 28.53 32.08
  A 0.46 0.46 0.0 0 1 28.99 31.63
  L 41.10 31.63
  A 0.50 0.50 0.0 0 1 41.60 32.13
  Q 41.64 46.08 41.59 55.53
  C 41.56 63.09 43.85 69.64 52.04 71.16
  Q 63.41 73.28 72.08 66.15
  A 1.07 1.03 -20.4 0 0 72.47 65.34
  L 72.47 32.12
  A 0.49 0.48 90.0 0 1 72.95 31.63
  L 85.10 31.63
  A 0.64 0.63 90.0 0 1 85.73 32.27
  L 85.73 81.39
  A 0.61 0.61 0.0 0 1 85.12 82.00
  L 73.08 82.00
  A 0.56 0.55 -0.0 0 1 72.52 81.45
  L 72.52 78.91
  A 0.32 0.32 0.0 0 0 72.04 78.63
  Z"
/>
</svg>
